<svg width="228" height="49" viewBox="0 0 228 49" fill="none" xmlns="http://www.w3.org/2000/svg">
<path d="M4.45864 37.6703C2.37572 36.1966 0.905037 34.0427 0.0465826 31.2152C0.0199639 31.1552 0 31.0819 0 30.9952C0 30.7551 0.146402 30.5951 0.445863 30.5017L5.08418 29.3881L5.26385 29.3414C5.53004 29.3414 5.70972 29.4881 5.79623 29.7882C6.3885 31.2486 7.18705 32.3155 8.1786 32.9824C9.17681 33.6492 10.5077 33.9893 12.1714 33.9893C13.8351 33.9893 15.1394 33.7092 16.0711 33.1424C17.0027 32.5756 17.4752 31.6954 17.4752 30.5084C17.4752 29.3214 17.036 28.4478 16.1576 27.7143C15.2792 26.9874 13.9349 26.2939 12.1248 25.6337L9.23004 24.6068C3.64011 22.6996 0.845143 19.5121 0.845143 15.0443C0.845143 13.2905 1.33093 11.71 2.29586 10.3097C3.26079 8.90928 4.57842 7.81566 6.24209 7.02878C7.90576 6.2419 9.76242 5.8418 11.8187 5.8418C14.6137 5.8418 16.9828 6.50864 18.9326 7.82899C20.8757 9.15602 22.2533 11.1565 23.0585 13.8373C23.0851 13.8973 23.1051 13.9706 23.1051 14.0573C23.1051 14.2974 22.9587 14.4574 22.6592 14.5508L17.7547 15.8045L17.575 15.8511C17.3088 15.8511 17.1292 15.7044 17.0426 15.4044C16.5103 14.0973 15.8248 13.1571 14.993 12.5903C14.1612 12.0234 13.1031 11.7434 11.8254 11.7434C10.4013 11.7434 9.25667 12.0301 8.39156 12.5903C7.52645 13.1571 7.10055 13.9173 7.10055 14.8709C7.10055 15.8845 7.53975 16.758 8.41817 17.4849C9.29659 18.2118 10.7007 18.9053 12.6306 19.5655L14.9464 20.3257C17.981 21.3393 20.197 22.6263 21.6144 24.1934C23.0252 25.7538 23.7306 27.861 23.7306 30.5151C23.7306 32.3022 23.2382 33.9093 22.2599 35.343C21.2817 36.7701 19.9108 37.8904 18.1606 38.6972C16.4104 39.5041 14.414 39.9042 12.1847 39.9042C9.12357 39.9042 6.55486 39.164 4.47194 37.6903L4.45864 37.6703Z" fill="white"/>
<path d="M32.009 38.1838C30.3719 37.1702 29.1208 35.7565 28.2424 33.9427C27.364 32.1289 26.9248 30.0416 26.9248 27.6877C26.9248 25.3337 27.364 23.2465 28.2424 21.4327C29.1208 19.6189 30.3719 18.1985 32.009 17.1916C33.646 16.1779 35.5493 15.6711 37.7187 15.6711C39.3225 15.6711 40.7732 15.9846 42.0642 16.6114C43.3552 17.2382 44.42 18.1318 45.2518 19.2921L45.3849 16.6981C45.3849 16.3113 45.5912 16.1179 46.0104 16.1179H50.2029C50.5889 16.1179 50.7819 16.3113 50.7819 16.6981V38.6773C50.7819 39.0641 50.5889 39.2574 50.2029 39.2574H46.0104C45.5912 39.2574 45.3849 39.0641 45.3849 38.6773L45.2518 36.0833C44.42 37.2436 43.3552 38.1371 42.0642 38.764C40.7732 39.3908 39.3225 39.7042 37.7187 39.7042C35.5493 39.7042 33.646 39.1974 32.009 38.1838ZM43.648 32.5557C44.8059 31.302 45.3849 29.6816 45.3849 27.6877C45.3849 25.6938 44.8059 24.0667 43.648 22.8197C42.4901 21.5727 40.9861 20.9459 39.1428 20.9459C37.2995 20.9459 35.7955 21.5727 34.6376 22.8197C33.4797 24.0667 32.9007 25.6938 32.9007 27.6877C32.9007 29.6816 33.4797 31.3087 34.6376 32.5557C35.7955 33.8027 37.2995 34.4295 39.1428 34.4295C40.9861 34.4295 42.4835 33.8027 43.648 32.5557Z" fill="white"/>
<path d="M57.4232 39.2575C57.0372 39.2575 56.8442 39.0641 56.8442 38.6773V6.32869C56.8442 5.94192 57.0372 5.74854 57.4232 5.74854H62.0615C62.4475 5.74854 62.6405 5.94192 62.6405 6.32869V38.6773C62.6405 39.0641 62.4475 39.2575 62.0615 39.2575H57.4232Z" fill="white"/>
<path d="M72.8287 38.1837C71.0586 37.1701 69.7077 35.7498 68.7694 33.9159C67.8311 32.0821 67.3652 30.0082 67.3652 27.6809C67.3652 25.3536 67.8311 23.2798 68.7694 21.4459C69.7077 19.6121 71.0586 18.1917 72.8287 17.1781C74.5989 16.1645 76.6685 15.6577 79.0509 15.6577C81.4332 15.6577 83.3698 16.2045 85.0467 17.2915C86.7237 18.3784 87.9814 19.9189 88.8133 21.9127C89.6451 23.9066 90.0311 26.2339 89.9712 28.8812C89.9446 29.268 89.7316 29.4614 89.3457 29.4614H73.5142C73.7804 31.0685 74.3992 32.3222 75.3642 33.2157C76.3291 34.1093 77.5735 34.5561 79.0841 34.5561C81.4 34.5561 83.0969 33.6759 84.1683 31.9221C84.3147 31.6553 84.5676 31.562 84.9269 31.6553L88.8931 33.0424C89.2791 33.1891 89.3856 33.4425 89.2059 33.8026C88.2277 35.7698 86.8435 37.2435 85.06 38.2237C83.2766 39.204 81.2735 39.6975 79.0442 39.6975C76.6685 39.6975 74.5922 39.1907 72.8221 38.1771L72.8287 38.1837ZM75.5438 21.9461C74.6055 22.7063 73.96 23.7732 73.6007 25.1402H83.769C83.5028 23.7732 82.9505 22.7063 82.1187 21.9461C81.2868 21.1859 80.2487 20.8058 78.9976 20.8058C77.6268 20.8058 76.4755 21.1859 75.5438 21.9461Z" fill="white"/>
<path d="M96.1934 38.1171C94.4832 37.0635 93.2587 35.5364 92.5134 33.5359C92.4868 33.4759 92.4668 33.4025 92.4668 33.3158C92.4668 33.0758 92.6132 32.9157 92.9127 32.8224L96.972 31.7087L97.1517 31.6621C97.4179 31.6621 97.5976 31.7954 97.6841 32.0622C98.1898 32.9557 98.8287 33.5959 99.6006 33.9827C100.373 34.3695 101.278 34.5628 102.322 34.5628C104.578 34.5628 105.71 33.996 105.71 32.8624C105.71 32.3889 105.457 31.9821 104.951 31.6554C104.445 31.3286 103.554 30.9886 102.276 30.6285L101.164 30.315C98.4893 29.5682 96.5395 28.5346 95.3217 27.2075C94.1038 25.8805 93.4916 24.2934 93.4916 22.4463C93.4916 21.1393 93.8643 19.9656 94.603 18.9387C95.3483 17.9117 96.3797 17.1048 97.704 16.5247C99.0283 15.9445 100.552 15.6511 102.276 15.6511C104.532 15.6511 106.428 16.1379 107.959 17.1048C109.489 18.0718 110.614 19.5255 111.326 21.4593C111.353 21.5194 111.373 21.606 111.373 21.7261C111.373 21.9661 111.24 22.1129 110.973 22.1729L106.914 23.4665C106.854 23.4932 106.768 23.5132 106.648 23.5132C106.468 23.5132 106.309 23.3932 106.155 23.1531C105.264 21.5727 103.939 20.7858 102.189 20.7858C101.357 20.7858 100.692 20.9192 100.206 21.1859C99.7138 21.4527 99.4675 21.8728 99.4675 22.4396C99.4675 23.0064 99.7404 23.4132 100.293 23.76C100.845 24.1 101.757 24.4401 103.034 24.7669L104.106 25.0336C106.868 25.7205 108.824 26.6741 109.969 27.8944C111.113 29.1147 111.686 30.7218 111.686 32.7224C111.686 34.7229 110.834 36.49 109.123 37.7704C107.413 39.0507 105.224 39.6909 102.549 39.6909C100.02 39.6909 97.9037 39.1641 96.1934 38.1038V38.1171Z" fill="white"/>
<path d="M116.63 49C116.244 49 116.051 48.8067 116.051 48.4199V16.6981C116.051 16.3113 116.244 16.1179 116.63 16.1179H120.823C121.235 16.1179 121.448 16.3113 121.448 16.6981L121.581 19.2921C122.413 18.1318 123.478 17.2382 124.769 16.6114C126.06 15.9846 127.511 15.6711 129.114 15.6711C131.284 15.6711 133.187 16.1779 134.824 17.1916C136.461 18.2052 137.712 19.6189 138.591 21.4327C139.469 23.2532 139.908 25.3337 139.908 27.6877C139.908 30.0416 139.469 32.1289 138.591 33.9427C137.712 35.7565 136.455 37.1769 134.824 38.1838C133.187 39.1974 131.284 39.7042 129.114 39.7042C127.63 39.7042 126.26 39.4242 125.015 38.8573C123.764 38.2905 122.713 37.4903 121.847 36.4434V48.4199C121.847 48.8067 121.655 49 121.269 49H116.63ZM132.196 32.5557C133.353 31.302 133.932 29.6816 133.932 27.6877C133.932 25.6938 133.353 24.0667 132.196 22.8197C131.038 21.566 129.534 20.9459 127.69 20.9459C125.847 20.9459 124.343 21.5727 123.185 22.8197C122.027 24.0734 121.448 25.6938 121.448 27.6877C121.448 29.6816 122.027 31.3087 123.185 32.5557C124.343 33.8093 125.847 34.4295 127.69 34.4295C129.534 34.4295 131.038 33.8027 132.196 32.5557Z" fill="white"/>
<path d="M173.035 39.2572C172.649 39.2572 172.456 39.0638 172.456 38.677V16.6978C172.456 16.3111 172.649 16.1177 173.035 16.1177H177.673C178.059 16.1177 178.252 16.3111 178.252 16.6978V38.677C178.252 39.0638 178.059 39.2572 177.673 39.2572H173.035Z" fill="white"/>
<path d="M184.894 39.2573C184.508 39.2573 184.315 39.0639 184.315 38.6771V16.6979C184.315 16.3111 184.508 16.1178 184.894 16.1178H189.086C189.499 16.1178 189.712 16.3111 189.712 16.6979L189.845 19.332C190.677 18.1383 191.761 17.2314 193.099 16.6046C194.436 15.9777 195.861 15.6643 197.378 15.6643C200.053 15.6643 202.129 16.4178 203.6 17.9182C205.071 19.4253 205.809 21.5125 205.809 24.1933V38.6705C205.809 39.0572 205.616 39.2506 205.23 39.2506H200.592C200.206 39.2506 200.013 39.0572 200.013 38.6705V26.5605C200.013 24.6267 199.654 23.1997 198.942 22.2927C198.23 21.3858 197.112 20.9324 195.594 20.9324C194.077 20.9324 192.786 21.4992 191.715 22.6328C190.643 23.7665 190.111 25.3736 190.111 27.4608V38.6771C190.111 39.0639 189.918 39.2573 189.532 39.2573H184.894Z" fill="white"/>
<path d="M214.92 37.3371C213.595 35.7566 212.937 33.4227 212.937 30.3219V21.2995H209.549C209.163 21.2995 208.97 21.1061 208.97 20.7193V16.6982C208.97 16.3115 209.163 16.1181 209.549 16.1181H212.937V9.90974C212.937 9.52297 213.13 9.32959 213.516 9.32959H218.154C218.54 9.32959 218.733 9.52297 218.733 9.90974V16.1181H224.216C224.602 16.1181 224.795 16.3115 224.795 16.6982V20.7193C224.795 21.1061 224.602 21.2995 224.216 21.2995H218.733V30.682C218.733 31.9356 218.939 32.8692 219.358 33.496C219.771 34.1229 220.43 34.4363 221.322 34.4363C222.067 34.4363 222.646 34.0629 223.058 33.3227C223.265 32.9626 223.531 32.8759 223.864 33.0559L227.344 34.623C227.55 34.7097 227.657 34.8764 227.657 35.1165C227.657 35.2365 227.61 35.3832 227.524 35.5633C226.752 36.9903 225.767 38.0439 224.582 38.7108C223.391 39.3843 222.1 39.7177 220.703 39.7177C218.174 39.7177 216.251 38.9308 214.926 37.3504L214.92 37.3371Z" fill="white"/>
<path d="M168.13 39.2639C168.13 41.8113 162.288 43.8785 155.087 43.8785C147.887 43.8785 142.037 41.8113 142.037 39.2639C142.037 37.5702 144.619 36.0898 148.466 35.2896C150.016 37.3701 151.607 38.5371 152.612 39.1639C153.763 39.8774 154.508 40.0975 155.267 40.0642C156.099 40.0241 156.758 39.6907 157.549 39.1639C158.588 38.4704 160.118 37.2767 161.695 35.2896C165.542 36.0898 168.124 37.5702 168.124 39.2639H168.13Z" fill="white"/>
<path d="M155.274 0C147.721 0 141.599 6.13497 141.599 13.7037C141.599 26.3337 155.274 38.9771 155.274 38.9771C155.274 38.9771 168.949 26.3337 168.949 13.7037C168.949 6.13497 162.827 0 155.274 0ZM155.307 25.1067C155.307 25.1467 155.247 25.1467 155.247 25.1067C154.755 18.9651 151.408 15.6775 145.212 15.2441C145.172 15.2441 145.172 15.1841 145.212 15.1774C151.408 14.7439 154.748 11.4564 155.247 5.31475C155.247 5.27474 155.307 5.27474 155.307 5.31475C155.8 11.4564 159.147 14.7439 165.343 15.1774C165.382 15.1774 165.382 15.2374 165.343 15.2441C159.147 15.6775 155.806 18.9651 155.307 25.1067Z" fill="white"/>
</svg>
